<?xml version="1.0" encoding="UTF-8"?>
<svg width="900" height="900" xmlns="http://www.w3.org/2000/svg">
  <g>
    <title>Layer 1</title>

    <!-- 左边的刀刃 (银白色) -->
    <path fill="#add8e6" stroke="#000" d="m211.98498,401.25799l0,0c0,-27.3381 22.16191,-49.50001 49.50001,-49.50001l0,0c13.12821,0 25.71874,5.21516 35.00178,14.49821c9.28306,9.28306 14.49822,21.87357 14.49822,35.00179l0,0c0,27.33809 -22.16191,49.50001 -49.50001,49.50001l0,0c-27.33809,0 -49.50001,-22.16191 -49.50001,-49.50001l0.00001,0.00001zm24.75,0l0,0c0,13.66904 11.08096,24.75 24.75,24.75c13.66905,0 24.75,-11.08096 24.75,-24.75c0,-13.66904 -11.08096,-24.75 -24.75,-24.75l0,0c-13.66904,0 -24.75,11.08096 -24.75,24.75z" id="svg_20"/>

    <!-- 右边的刀刃 (银白色) -->
    <path fill="#add8e6" stroke="#000" d="m394.98498,403.25799l0,0c0,-27.3381 22.16191,-49.50001 49.50001,-49.50001l0,0c13.12821,0 25.71873,5.21516 35.00178,14.49821c9.28305,9.28306 14.49822,21.87358 14.49822,35.0018l0,0c0,27.33809 -22.16191,49.5 -49.5,49.5l0,0c-27.3381,0 -49.50001,-22.16191 -49.50001,-49.5zm24.75,0l0,0c0,13.66904 11.08096,24.75 24.75001,24.75c13.66905,0 24.75,-11.08096 24.75,-24.75c0,-13.66905 -11.08096,-24.75001 -24.75,-24.75001l0,0c-13.66905,0 -24.75001,11.08097 -24.75001,24.75001z" id="svg_21"/>

    <!-- 左边的刀柄 (浅蓝色) -->
    <path transform="rotate(-32 333.134 221.036)" stroke="#000" fill="#c0c0c0" d="m309.53695,220.64377l23.59683,-162.95628l23.59684,162.95628l-11.79842,0l0,163.74041l-23.59684,0l0,-163.74041l-11.79842,0l0.00001,0z" id="svg_31"/>

    <!-- 右边的刀柄 (浅蓝色) -->
    <path transform="rotate(32 372.895 219.65)" stroke="#000" fill="#c0c0c0" d="m348.82137,219.25237l24.07358,-165.28127l24.07359,165.28127l-12.03679,0l0,166.07658l-24.07359,0l0,-166.07658l-12.03679,0l0.00001,0z" id="svg_2"/>
  </g>
</svg>
